<?xml version="1.0" standalone="no"?>
<!DOCTYPE svg PUBLIC "-//W3C//DTD SVG 20010904//EN"
 "http://www.w3.org/TR/2001/REC-SVG-20010904/DTD/svg10.dtd">
<svg version="1.0" xmlns="http://www.w3.org/2000/svg"
 width="560.000000pt" height="560.000000pt" viewBox="0 0 560.000000 560.000000"
 preserveAspectRatio="xMidYMid meet">

<g transform="translate(0.000000,560.000000) scale(0.100000,-0.100000)"
fill="#000000" stroke="none">
<path d="M2550 4839 c-869 -99 -1598 -742 -1805 -1592 -80 -328 -71 -728 23
-1052 166 -569 561 -1042 1087 -1300 214 -105 323 -134 374 -99 45 32 50 65
44 278 l-6 198 -31 -6 c-87 -16 -263 -18 -334 -2 -170 36 -269 116 -352 286
-63 128 -117 200 -190 253 -121 89 -136 117 -74 137 111 37 278 -56 380 -210
57 -86 130 -154 202 -188 52 -25 67 -27 177 -26 94 1 132 5 175 21 l55 20 18
67 c21 80 47 133 87 180 17 19 27 37 23 39 -4 3 -37 8 -73 12 -36 4 -116 20
-179 36 -465 119 -691 432 -692 959 -1 116 3 161 20 225 27 103 86 224 145
300 29 37 44 65 40 75 -40 101 -42 307 -4 440 29 104 33 106 124 92 127 -20
251 -70 412 -168 l71 -43 119 24 c269 55 549 55 819 0 l118 -24 71 43 c161 98
285 148 412 168 91 14 95 12 124 -92 38 -133 36 -339 -4 -440 -4 -10 11 -38
40 -75 60 -76 118 -198 144 -300 17 -63 21 -110 21 -225 -1 -510 -214 -821
-646 -945 -92 -26 -239 -55 -281 -55 -31 0 -30 -5 6 -46 38 -44 64 -94 86
-169 16 -52 18 -107 20 -410 1 -192 3 -358 3 -368 1 -10 14 -32 30 -48 53 -52
140 -34 376 82 536 261 935 738 1100 1313 92 321 99 718 20 1043 -208 856
-938 1495 -1817 1592 -112 13 -368 12 -478 0z"/>
<path d="M1430 1876 c0 -20 27 -39 45 -32 20 7 19 32 -1 40 -26 10 -44 7 -44
-8z"/>
<path d="M1520 1795 c0 -25 32 -51 50 -40 17 10 11 44 -9 55 -30 16 -41 12
-41 -15z"/>
<path d="M1600 1686 c0 -31 38 -60 57 -44 18 15 16 32 -5 51 -28 25 -52 22
-52 -7z"/>
<path d="M1696 1574 c-7 -18 38 -68 56 -62 26 9 33 36 14 57 -22 25 -61 28
-70 5z"/>
<path d="M1843 1484 c-4 -11 1 -23 16 -36 28 -22 32 -22 57 -4 15 12 17 18 8
33 -15 25 -72 30 -81 7z"/>
<path d="M2186 1487 c-30 -22 -16 -52 23 -52 41 0 62 25 42 49 -16 19 -41 20
-65 3z"/>
<path d="M2028 1469 c-27 -15 -22 -47 7 -55 49 -12 86 26 50 52 -22 16 -34 17
-57 3z"/>
</g>
</svg>
